# xmcd
#
# Track frame offsets: 
#        150
#        14656
#        40647
#        55550
#        71224
#        99649
#        125695
#        146373
#        176246
#        201293
#        220728
#        239500
#        259582
#
# Disc length: 3665 seconds
#
# Revision: 0
# Processed by: cddbd v1.5.1PL0 Copyright (c) Steve Scherf et al.
# Submitted via: ExactAudioCopy v0.95a5
#
DISCID=c20e4f0d
DTITLE=Ellis Hall - Straight Ahead
DYEAR=2004
DGENRE=Soul
TTITLE0=The Spirit Lingers On
TTITLE1=Keep Your Life Straight Ahead
TTITLE2=Goota Get The Money
TTITLE3=I Really Wana See Ya Tonight
TTITLE4=It Is A Wonder
TTITLE5=Love Can Make It Better
TTITLE6=Girl Your Not In KansasAnymore
TTITLE7=Something
TTITLE8=Stand Up
TTITLE9=Why Should I Care
TTITLE10=Sooner Or Later
TTITLE11=Got The Fever
TTITLE12=Whisper In The Woods
EXTD=
EXTT0=
EXTT1=
EXTT2=
EXTT3=
EXTT4=
EXTT5=
EXTT6=
EXTT7=
EXTT8=
EXTT9=
EXTT10=
EXTT11=
EXTT12=
PLAYORDER=
